<mxfile host="app.diagrams.net" modified="2021-04-28T16:40:15.388Z" agent="5.0 (Macintosh; Intel Mac OS X 10_15_7) AppleWebKit/537.36 (KHTML, like Gecko) Chrome/90.0.4430.85 Safari/537.36" etag="heAuPcKhZTMcxqz9sUhN" version="14.6.6" type="github">
  <diagram id="kgpKYQtTHZ0yAKxKKP6v" name="Page-1">
    <mxGraphModel dx="946" dy="589" grid="1" gridSize="10" guides="1" tooltips="1" connect="1" arrows="1" fold="1" page="1" pageScale="1" pageWidth="850" pageHeight="1100" math="0" shadow="0">
      <root>
        <mxCell id="0" />
        <mxCell id="1" parent="0" />
        <mxCell id="FobV05HcqF6CDb4__IpL-54" style="edgeStyle=orthogonalEdgeStyle;rounded=0;orthogonalLoop=1;jettySize=auto;html=1;fontSize=14;entryX=0;entryY=0.5;entryDx=0;entryDy=0;" edge="1" parent="1" source="3nuBFxr9cyL0pnOWT2aG-6" target="FobV05HcqF6CDb4__IpL-77">
          <mxGeometry relative="1" as="geometry">
            <mxPoint x="100" y="940" as="targetPoint" />
            <Array as="points">
              <mxPoint x="625" y="230" />
              <mxPoint x="20" y="230" />
              <mxPoint x="20" y="940" />
            </Array>
          </mxGeometry>
        </mxCell>
        <mxCell id="3nuBFxr9cyL0pnOWT2aG-6" value="User 1/Room 1" style="rounded=1;whiteSpace=wrap;html=1;arcSize=50;" parent="1" vertex="1">
          <mxGeometry x="580" y="297" width="90" height="40" as="geometry" />
        </mxCell>
        <mxCell id="FobV05HcqF6CDb4__IpL-49" style="edgeStyle=orthogonalEdgeStyle;rounded=0;orthogonalLoop=1;jettySize=auto;html=1;fontSize=14;entryX=1;entryY=0.5;entryDx=0;entryDy=0;" edge="1" parent="1" source="FobV05HcqF6CDb4__IpL-20" target="FobV05HcqF6CDb4__IpL-33">
          <mxGeometry relative="1" as="geometry">
            <mxPoint x="808" y="427" as="targetPoint" />
            <Array as="points">
              <mxPoint x="820" y="708" />
              <mxPoint x="820" y="434" />
            </Array>
          </mxGeometry>
        </mxCell>
        <mxCell id="FobV05HcqF6CDb4__IpL-20" value="Triggers&lt;br&gt;Subscriptions" style="rhombus;whiteSpace=wrap;html=1;" vertex="1" parent="1">
          <mxGeometry x="565" y="663" width="120" height="90" as="geometry" />
        </mxCell>
        <mxCell id="FobV05HcqF6CDb4__IpL-23" value="&lt;b style=&quot;font-size: 16px;&quot;&gt;Server&lt;/b&gt;" style="rounded=0;whiteSpace=wrap;html=1;fontSize=16;" vertex="1" parent="1">
          <mxGeometry x="310" y="280" width="120" height="447" as="geometry" />
        </mxCell>
        <mxCell id="FobV05HcqF6CDb4__IpL-33" value="User 2/Room 1" style="rounded=1;whiteSpace=wrap;html=1;arcSize=50;" vertex="1" parent="1">
          <mxGeometry x="580" y="414" width="90" height="40" as="geometry" />
        </mxCell>
        <mxCell id="FobV05HcqF6CDb4__IpL-34" style="edgeStyle=orthogonalEdgeStyle;rounded=0;orthogonalLoop=1;jettySize=auto;html=1;entryX=-0.017;entryY=0.101;entryDx=0;entryDy=0;entryPerimeter=0;fontSize=16;" edge="1" parent="1">
          <mxGeometry relative="1" as="geometry">
            <mxPoint x="307.96000000000004" y="433.865" as="targetPoint" />
            <Array as="points">
              <mxPoint x="248" y="434" />
            </Array>
            <mxPoint x="80" y="433.9" as="sourcePoint" />
          </mxGeometry>
        </mxCell>
        <mxCell id="FobV05HcqF6CDb4__IpL-35" value="subscribes to Room 1" style="edgeLabel;html=1;align=center;verticalAlign=middle;resizable=0;points=[];fontSize=14;" vertex="1" connectable="0" parent="FobV05HcqF6CDb4__IpL-34">
          <mxGeometry x="-0.205" y="-1" relative="1" as="geometry">
            <mxPoint y="-16" as="offset" />
          </mxGeometry>
        </mxCell>
        <mxCell id="FobV05HcqF6CDb4__IpL-37" value="" style="endArrow=classic;html=1;fontSize=14;entryX=0;entryY=0.5;entryDx=0;entryDy=0;exitX=1.017;exitY=0.101;exitDx=0;exitDy=0;exitPerimeter=0;" edge="1" parent="1" target="FobV05HcqF6CDb4__IpL-33">
          <mxGeometry width="50" height="50" relative="1" as="geometry">
            <mxPoint x="432.03999999999996" y="433.865" as="sourcePoint" />
            <mxPoint x="480" y="484" as="targetPoint" />
          </mxGeometry>
        </mxCell>
        <mxCell id="FobV05HcqF6CDb4__IpL-38" value="User 3/Room 2" style="rounded=1;whiteSpace=wrap;html=1;arcSize=50;" vertex="1" parent="1">
          <mxGeometry x="580" y="534" width="90" height="40" as="geometry" />
        </mxCell>
        <mxCell id="FobV05HcqF6CDb4__IpL-39" style="edgeStyle=orthogonalEdgeStyle;rounded=0;orthogonalLoop=1;jettySize=auto;html=1;entryX=-0.017;entryY=0.101;entryDx=0;entryDy=0;entryPerimeter=0;fontSize=16;" edge="1" parent="1">
          <mxGeometry relative="1" as="geometry">
            <mxPoint x="307.96000000000004" y="553.865" as="targetPoint" />
            <Array as="points">
              <mxPoint x="248" y="554" />
            </Array>
            <mxPoint x="80" y="553.9000000000001" as="sourcePoint" />
          </mxGeometry>
        </mxCell>
        <mxCell id="FobV05HcqF6CDb4__IpL-40" value="subscribes to Room 2" style="edgeLabel;html=1;align=center;verticalAlign=middle;resizable=0;points=[];fontSize=14;" vertex="1" connectable="0" parent="FobV05HcqF6CDb4__IpL-39">
          <mxGeometry x="-0.205" y="-1" relative="1" as="geometry">
            <mxPoint y="-16" as="offset" />
          </mxGeometry>
        </mxCell>
        <mxCell id="FobV05HcqF6CDb4__IpL-42" value="" style="endArrow=classic;html=1;fontSize=14;entryX=0;entryY=0.5;entryDx=0;entryDy=0;exitX=1.017;exitY=0.101;exitDx=0;exitDy=0;exitPerimeter=0;" edge="1" parent="1" target="FobV05HcqF6CDb4__IpL-38">
          <mxGeometry width="50" height="50" relative="1" as="geometry">
            <mxPoint x="432.03999999999996" y="553.865" as="sourcePoint" />
            <mxPoint x="480" y="604" as="targetPoint" />
          </mxGeometry>
        </mxCell>
        <mxCell id="FobV05HcqF6CDb4__IpL-43" style="edgeStyle=orthogonalEdgeStyle;rounded=0;orthogonalLoop=1;jettySize=auto;html=1;entryX=-0.017;entryY=0.101;entryDx=0;entryDy=0;entryPerimeter=0;fontSize=16;" edge="1" parent="1">
          <mxGeometry relative="1" as="geometry">
            <mxPoint x="307.96000000000004" y="313.865" as="targetPoint" />
            <Array as="points">
              <mxPoint x="248" y="314" />
            </Array>
            <mxPoint x="80" y="313.9" as="sourcePoint" />
          </mxGeometry>
        </mxCell>
        <mxCell id="FobV05HcqF6CDb4__IpL-44" value="subscribes to Room 1" style="edgeLabel;html=1;align=center;verticalAlign=middle;resizable=0;points=[];fontSize=14;" vertex="1" connectable="0" parent="FobV05HcqF6CDb4__IpL-43">
          <mxGeometry x="-0.205" y="-1" relative="1" as="geometry">
            <mxPoint y="-16" as="offset" />
          </mxGeometry>
        </mxCell>
        <mxCell id="FobV05HcqF6CDb4__IpL-45" value="" style="endArrow=classic;html=1;fontSize=14;entryX=0;entryY=0.5;entryDx=0;entryDy=0;exitX=1.017;exitY=0.101;exitDx=0;exitDy=0;exitPerimeter=0;" edge="1" parent="1">
          <mxGeometry width="50" height="50" relative="1" as="geometry">
            <mxPoint x="432.03999999999996" y="313.865" as="sourcePoint" />
            <mxPoint x="580" y="314" as="targetPoint" />
          </mxGeometry>
        </mxCell>
        <mxCell id="FobV05HcqF6CDb4__IpL-47" value="" style="endArrow=classic;html=1;fontSize=14;entryX=-0.027;entryY=0.941;entryDx=0;entryDy=0;entryPerimeter=0;" edge="1" parent="1" source="FobV05HcqF6CDb4__IpL-61" target="FobV05HcqF6CDb4__IpL-23">
          <mxGeometry width="50" height="50" relative="1" as="geometry">
            <mxPoint x="160" y="702" as="sourcePoint" />
            <mxPoint x="290" y="690" as="targetPoint" />
          </mxGeometry>
        </mxCell>
        <mxCell id="FobV05HcqF6CDb4__IpL-62" value="Sends message in Room 1" style="edgeLabel;html=1;align=center;verticalAlign=middle;resizable=0;points=[];fontSize=14;" vertex="1" connectable="0" parent="FobV05HcqF6CDb4__IpL-47">
          <mxGeometry x="-0.661" relative="1" as="geometry">
            <mxPoint x="73" y="-11" as="offset" />
          </mxGeometry>
        </mxCell>
        <mxCell id="FobV05HcqF6CDb4__IpL-48" value="" style="endArrow=classic;html=1;fontSize=14;" edge="1" parent="1">
          <mxGeometry width="50" height="50" relative="1" as="geometry">
            <mxPoint x="430" y="707" as="sourcePoint" />
            <mxPoint x="560" y="708" as="targetPoint" />
          </mxGeometry>
        </mxCell>
        <mxCell id="FobV05HcqF6CDb4__IpL-50" style="edgeStyle=orthogonalEdgeStyle;rounded=0;orthogonalLoop=1;jettySize=auto;html=1;fontSize=14;" edge="1" parent="1">
          <mxGeometry relative="1" as="geometry">
            <mxPoint x="670" y="317" as="targetPoint" />
            <mxPoint x="685" y="708" as="sourcePoint" />
            <Array as="points">
              <mxPoint x="820" y="708" />
              <mxPoint x="820" y="317" />
              <mxPoint x="670" y="317" />
            </Array>
          </mxGeometry>
        </mxCell>
        <mxCell id="FobV05HcqF6CDb4__IpL-101" style="edgeStyle=orthogonalEdgeStyle;rounded=0;orthogonalLoop=1;jettySize=auto;html=1;entryX=0;entryY=0.5;entryDx=0;entryDy=0;fontSize=14;" edge="1" parent="1" source="FobV05HcqF6CDb4__IpL-52" target="FobV05HcqF6CDb4__IpL-97">
          <mxGeometry relative="1" as="geometry" />
        </mxCell>
        <mxCell id="FobV05HcqF6CDb4__IpL-52" value="User 1/Room 1" style="rounded=1;whiteSpace=wrap;html=1;arcSize=50;" vertex="1" parent="1">
          <mxGeometry x="270" y="820" width="90" height="40" as="geometry" />
        </mxCell>
        <mxCell id="FobV05HcqF6CDb4__IpL-53" value="User 2/Room 1" style="rounded=1;whiteSpace=wrap;html=1;arcSize=50;" vertex="1" parent="1">
          <mxGeometry x="270" y="1000" width="90" height="40" as="geometry" />
        </mxCell>
        <mxCell id="FobV05HcqF6CDb4__IpL-58" value="User 1" style="rounded=0;whiteSpace=wrap;html=1;fontSize=14;" vertex="1" parent="1">
          <mxGeometry x="40" y="290" width="50" height="40" as="geometry" />
        </mxCell>
        <mxCell id="FobV05HcqF6CDb4__IpL-59" value="User 2" style="rounded=0;whiteSpace=wrap;html=1;fontSize=14;" vertex="1" parent="1">
          <mxGeometry x="40" y="410" width="50" height="40" as="geometry" />
        </mxCell>
        <mxCell id="FobV05HcqF6CDb4__IpL-60" value="User 3" style="rounded=0;whiteSpace=wrap;html=1;fontSize=14;" vertex="1" parent="1">
          <mxGeometry x="40" y="530" width="50" height="40" as="geometry" />
        </mxCell>
        <mxCell id="FobV05HcqF6CDb4__IpL-61" value="User 4" style="rounded=0;whiteSpace=wrap;html=1;fontSize=14;" vertex="1" parent="1">
          <mxGeometry x="40" y="680" width="50" height="40" as="geometry" />
        </mxCell>
        <mxCell id="FobV05HcqF6CDb4__IpL-79" style="edgeStyle=orthogonalEdgeStyle;rounded=0;orthogonalLoop=1;jettySize=auto;html=1;entryX=0;entryY=0.5;entryDx=0;entryDy=0;fontSize=14;" edge="1" parent="1" source="FobV05HcqF6CDb4__IpL-77" target="FobV05HcqF6CDb4__IpL-53">
          <mxGeometry relative="1" as="geometry" />
        </mxCell>
        <mxCell id="FobV05HcqF6CDb4__IpL-80" style="edgeStyle=orthogonalEdgeStyle;rounded=0;orthogonalLoop=1;jettySize=auto;html=1;entryX=0;entryY=0.5;entryDx=0;entryDy=0;fontSize=14;" edge="1" parent="1" source="FobV05HcqF6CDb4__IpL-77" target="FobV05HcqF6CDb4__IpL-52">
          <mxGeometry relative="1" as="geometry" />
        </mxCell>
        <mxCell id="FobV05HcqF6CDb4__IpL-77" value="Run Concurrently" style="rhombus;whiteSpace=wrap;html=1;fontSize=14;" vertex="1" parent="1">
          <mxGeometry x="60" y="900" width="150" height="80" as="geometry" />
        </mxCell>
        <mxCell id="FobV05HcqF6CDb4__IpL-81" value="Create bookmark" style="shape=parallelogram;perimeter=parallelogramPerimeter;whiteSpace=wrap;html=1;fixedSize=1;fontSize=14;" vertex="1" parent="1">
          <mxGeometry x="630" y="790" width="180" height="20" as="geometry" />
        </mxCell>
        <mxCell id="FobV05HcqF6CDb4__IpL-82" value="Calculate notification" style="shape=parallelogram;perimeter=parallelogramPerimeter;whiteSpace=wrap;html=1;fixedSize=1;fontSize=14;" vertex="1" parent="1">
          <mxGeometry x="630" y="830" width="180" height="20" as="geometry" />
        </mxCell>
        <mxCell id="FobV05HcqF6CDb4__IpL-83" value="Update badge" style="shape=parallelogram;perimeter=parallelogramPerimeter;whiteSpace=wrap;html=1;fixedSize=1;fontSize=14;" vertex="1" parent="1">
          <mxGeometry x="630" y="870" width="180" height="20" as="geometry" />
        </mxCell>
        <mxCell id="FobV05HcqF6CDb4__IpL-97" value="Run Concurrently" style="rhombus;whiteSpace=wrap;html=1;fontSize=14;" vertex="1" parent="1">
          <mxGeometry x="405" y="800" width="155" height="80" as="geometry" />
        </mxCell>
        <mxCell id="FobV05HcqF6CDb4__IpL-98" value="" style="endArrow=classic;html=1;fontSize=14;entryX=0;entryY=0.75;entryDx=0;entryDy=0;exitX=1;exitY=0.5;exitDx=0;exitDy=0;" edge="1" parent="1" source="FobV05HcqF6CDb4__IpL-97" target="FobV05HcqF6CDb4__IpL-81">
          <mxGeometry width="50" height="50" relative="1" as="geometry">
            <mxPoint x="420" y="940" as="sourcePoint" />
            <mxPoint x="470" y="890" as="targetPoint" />
          </mxGeometry>
        </mxCell>
        <mxCell id="FobV05HcqF6CDb4__IpL-99" value="" style="endArrow=classic;html=1;fontSize=14;entryX=0;entryY=0.75;entryDx=0;entryDy=0;exitX=1;exitY=0.5;exitDx=0;exitDy=0;" edge="1" parent="1" source="FobV05HcqF6CDb4__IpL-97" target="FobV05HcqF6CDb4__IpL-82">
          <mxGeometry width="50" height="50" relative="1" as="geometry">
            <mxPoint x="550" y="900" as="sourcePoint" />
            <mxPoint x="600" y="850" as="targetPoint" />
          </mxGeometry>
        </mxCell>
        <mxCell id="FobV05HcqF6CDb4__IpL-100" value="" style="endArrow=classic;html=1;fontSize=14;entryX=0;entryY=0.5;entryDx=0;entryDy=0;exitX=1;exitY=0.5;exitDx=0;exitDy=0;" edge="1" parent="1" source="FobV05HcqF6CDb4__IpL-97" target="FobV05HcqF6CDb4__IpL-83">
          <mxGeometry width="50" height="50" relative="1" as="geometry">
            <mxPoint x="420" y="940" as="sourcePoint" />
            <mxPoint x="470" y="890" as="targetPoint" />
          </mxGeometry>
        </mxCell>
        <mxCell id="FobV05HcqF6CDb4__IpL-102" style="edgeStyle=orthogonalEdgeStyle;rounded=0;orthogonalLoop=1;jettySize=auto;html=1;entryX=0;entryY=0.5;entryDx=0;entryDy=0;fontSize=14;exitX=1;exitY=0.5;exitDx=0;exitDy=0;" edge="1" parent="1" target="FobV05HcqF6CDb4__IpL-106" source="FobV05HcqF6CDb4__IpL-53">
          <mxGeometry relative="1" as="geometry">
            <mxPoint x="380" y="1020" as="sourcePoint" />
          </mxGeometry>
        </mxCell>
        <mxCell id="FobV05HcqF6CDb4__IpL-103" value="Create bookmark" style="shape=parallelogram;perimeter=parallelogramPerimeter;whiteSpace=wrap;html=1;fixedSize=1;fontSize=14;" vertex="1" parent="1">
          <mxGeometry x="630" y="970" width="180" height="20" as="geometry" />
        </mxCell>
        <mxCell id="FobV05HcqF6CDb4__IpL-104" value="Calculate notification" style="shape=parallelogram;perimeter=parallelogramPerimeter;whiteSpace=wrap;html=1;fixedSize=1;fontSize=14;" vertex="1" parent="1">
          <mxGeometry x="630" y="1010" width="180" height="20" as="geometry" />
        </mxCell>
        <mxCell id="FobV05HcqF6CDb4__IpL-105" value="Update badge" style="shape=parallelogram;perimeter=parallelogramPerimeter;whiteSpace=wrap;html=1;fixedSize=1;fontSize=14;" vertex="1" parent="1">
          <mxGeometry x="630" y="1050" width="180" height="20" as="geometry" />
        </mxCell>
        <mxCell id="FobV05HcqF6CDb4__IpL-106" value="Run Concurrently" style="rhombus;whiteSpace=wrap;html=1;fontSize=14;" vertex="1" parent="1">
          <mxGeometry x="405" y="980" width="155" height="80" as="geometry" />
        </mxCell>
        <mxCell id="FobV05HcqF6CDb4__IpL-107" value="" style="endArrow=classic;html=1;fontSize=14;entryX=0;entryY=0.75;entryDx=0;entryDy=0;exitX=1;exitY=0.5;exitDx=0;exitDy=0;" edge="1" parent="1" source="FobV05HcqF6CDb4__IpL-106" target="FobV05HcqF6CDb4__IpL-103">
          <mxGeometry width="50" height="50" relative="1" as="geometry">
            <mxPoint x="420" y="1120" as="sourcePoint" />
            <mxPoint x="470" y="1070" as="targetPoint" />
          </mxGeometry>
        </mxCell>
        <mxCell id="FobV05HcqF6CDb4__IpL-108" value="" style="endArrow=classic;html=1;fontSize=14;entryX=0;entryY=0.75;entryDx=0;entryDy=0;exitX=1;exitY=0.5;exitDx=0;exitDy=0;" edge="1" parent="1" source="FobV05HcqF6CDb4__IpL-106" target="FobV05HcqF6CDb4__IpL-104">
          <mxGeometry width="50" height="50" relative="1" as="geometry">
            <mxPoint x="550" y="1080" as="sourcePoint" />
            <mxPoint x="600" y="1030" as="targetPoint" />
          </mxGeometry>
        </mxCell>
        <mxCell id="FobV05HcqF6CDb4__IpL-109" value="" style="endArrow=classic;html=1;fontSize=14;entryX=0;entryY=0.5;entryDx=0;entryDy=0;exitX=1;exitY=0.5;exitDx=0;exitDy=0;" edge="1" parent="1" source="FobV05HcqF6CDb4__IpL-106" target="FobV05HcqF6CDb4__IpL-105">
          <mxGeometry width="50" height="50" relative="1" as="geometry">
            <mxPoint x="420" y="1120" as="sourcePoint" />
            <mxPoint x="470" y="1070" as="targetPoint" />
          </mxGeometry>
        </mxCell>
        <mxCell id="FobV05HcqF6CDb4__IpL-110" value="&lt;p style=&quot;line-height: 90%&quot;&gt;&lt;/p&gt;&lt;h1&gt;Message Subscription&amp;nbsp;&lt;/h1&gt;&lt;p style=&quot;font-size: 13px&quot;&gt;&lt;font style=&quot;font-size: 13px&quot;&gt;Clients subscribe to channels (rooms, groups, 1-1s).&amp;nbsp;&lt;span&gt;When a message is sent, subscribers&lt;/span&gt;&lt;span&gt;&amp;nbsp;receive updates.&lt;/span&gt;&lt;/font&gt;&lt;/p&gt;&lt;p style=&quot;font-size: 13px&quot;&gt;&lt;font style=&quot;font-size: 13px&quot;&gt;The server handles each client subscription concurrently. It also concurrently calculates information like badge, bookmark, and notification.&lt;/font&gt;&lt;/p&gt;&lt;p&gt;&lt;/p&gt;" style="text;html=1;strokeColor=none;fillColor=none;spacing=5;spacingTop=-20;whiteSpace=wrap;overflow=hidden;rounded=0;fontSize=14;" vertex="1" parent="1">
          <mxGeometry x="20" y="10" width="730" height="130" as="geometry" />
        </mxCell>
      </root>
    </mxGraphModel>
  </diagram>
</mxfile>
